<svg xmlns="http://www.w3.org/2000/svg" viewBox="0 0 1000 800" role="img" aria-label="L-Glutathione enriched yeast extract powder">
  <defs>
    <linearGradient id="bg" x1="0" y1="0" x2="1" y2="1">
      <stop offset="0" stop-color="#f8f4e8"/>
      <stop offset="0.55" stop-color="#e8dcc2"/>
      <stop offset="1" stop-color="#cbb78d"/>
    </linearGradient>
    <radialGradient id="powder" cx="50%" cy="38%" r="70%">
      <stop offset="0" stop-color="#fff8df"/>
      <stop offset="0.6" stop-color="#e7d2a3"/>
      <stop offset="1" stop-color="#b59662"/>
    </radialGradient>
    <filter id="shadow" x="-20%" y="-20%" width="140%" height="140%">
      <feDropShadow dx="0" dy="18" stdDeviation="22" flood-color="#4b3c25" flood-opacity="0.22"/>
    </filter>
  </defs>
  <rect width="1000" height="800" fill="url(#bg)"/>
  <circle cx="170" cy="155" r="76" fill="#ffffff" opacity="0.22"/>
  <circle cx="855" cy="628" r="118" fill="#6b8c5a" opacity="0.16"/>
  <path d="M112 684c178-88 299-89 468-46 109 28 202 25 320-28v190H112z" fill="#6d7f4a" opacity="0.13"/>
  <g filter="url(#shadow)">
    <ellipse cx="505" cy="528" rx="267" ry="88" fill="#6a5737" opacity="0.18"/>
    <ellipse cx="510" cy="494" rx="258" ry="84" fill="#fbf3df"/>
    <ellipse cx="510" cy="470" rx="222" ry="61" fill="url(#powder)"/>
    <path d="M304 486c91 43 310 46 412-2-23 57-96 93-207 93-108 0-183-34-205-91z" fill="#e2c996"/>
    <path d="M305 482c100 54 309 54 410 0" fill="none" stroke="#b89357" stroke-width="5" opacity="0.35"/>
  </g>
  <g fill="#7e6a45" opacity="0.45">
    <circle cx="431" cy="428" r="6"/>
    <circle cx="480" cy="413" r="5"/>
    <circle cx="541" cy="430" r="7"/>
    <circle cx="595" cy="453" r="4"/>
    <circle cx="385" cy="457" r="4"/>
    <circle cx="653" cy="479" r="6"/>
  </g>
  <g transform="translate(690 286) rotate(-18)">
    <rect x="0" y="0" width="52" height="210" rx="26" fill="#9f7a38"/>
    <rect x="8" y="12" width="36" height="176" rx="18" fill="#d6b775"/>
    <ellipse cx="26" cy="18" rx="24" ry="11" fill="#f7e5b7"/>
  </g>
  <g transform="translate(242 216)">
    <rect x="0" y="24" width="82" height="198" rx="30" fill="#8a6a39" opacity="0.58"/>
    <rect x="12" y="0" width="58" height="38" rx="10" fill="#efe4cc"/>
    <rect x="12" y="76" width="58" height="92" rx="12" fill="#f3dca2" opacity="0.72"/>
    <circle cx="41" cy="122" r="13" fill="#fff2c8" opacity="0.7"/>
  </g>
  <g fill="none" stroke="#315f43" stroke-width="8" stroke-linecap="round" opacity="0.78">
    <path d="M258 348c-38-29-59-68-64-117"/>
    <path d="M259 347c45-24 75-61 90-111"/>
  </g>
  <path d="M192 232c-46 11-84-19-100-70 48-8 88 16 100 70z" fill="#55794f"/>
  <path d="M348 236c47 17 67 60 50 108-48-16-71-58-50-108z" fill="#6e9359"/>
</svg>
